# xmcd
#
# Track frame offsets:
#	182
#	10155
#	20642
#	31752
#	43482
#	54005
#	65587
#	78662
#	89807
#	100122
#	110790
#	121227
#
# Disc length: 1752 seconds
#
# Revision: 5
# Processed by: cddbd v1.5.2PL0 Copyright (c) Steve Scherf et al.
# Submitted via: EZCDAudioConverter 6.0.7.1
#
DISCID=9e06d60c
DTITLE=Patsy Cline - Volume 3
DYEAR=1992
DGENRE=Country
TTITLE0=Turn The Cards Slowly
TTITLE1=He Will Do For You What He Has Done For Me
TTITLE2=Hidin' Out
TTITLE3=Walkin' After Midnight
TTITLE4=Love Sick Blues
TTITLE5=Lonely Street
TTITLE6=Life's Railway To Heaven
TTITLE7=A Stranger In My Arms
TTITLE8=Three Cigarettes In An Ashtray
TTITLE9=Got A Lot Of Rhythm In My Soul
TTITLE10=Too Many Secrets
TTITLE11=Walkin' Dreams
EXTD=
EXTT0=
EXTT1=
EXTT2=
EXTT3=
EXTT4=
EXTT5=
EXTT6=
EXTT7=
EXTT8=
EXTT9=
EXTT10=
EXTT11=
PLAYORDER=
